<svg width="24" height="24" viewBox="0 0 24 24" fill="none" xmlns="http://www.w3.org/2000/svg">
    <path d="M23.4437 0.75L13.1455 8.36991L15.0605 3.87928L23.4437 0.75Z" fill="#E17726"/>
    <path d="M0.580359 0.759033L8.94108 3.87988L10.7595 8.42938L0.580359 0.759033ZM19.2993 16.9555L23.851 17.0421L22.2602 22.446L16.7062 20.9169L19.2993 16.9555ZM4.70048 16.9555L7.28395 20.9169L1.7393 22.4461L0.158203 17.0421L4.70048 16.9555Z"
          fill="#E27625"/>
    <path d="M10.5124 7.2704L10.6984 13.2782L5.13232 13.025L6.71557 10.6364L6.73564 10.6134L10.5124 7.2704ZM13.4301 7.20337L17.2645 10.6136L17.2844 10.6365L18.8676 13.0251L13.3028 13.2782L13.4301 7.20337ZM7.44711 16.9728L10.4863 19.3408L6.95586 21.0453L7.44711 16.9728ZM16.5536 16.9724L17.0346 21.0454L13.514 19.3406L16.5536 16.9724Z"
          fill="#E27625"/>
    <path d="M13.5916 19.1177L17.1641 20.8476L13.841 22.4269L13.8755 21.3831L13.5916 19.1177ZM10.4072 19.1184L10.1345 21.366L10.1569 22.4256L6.82593 20.8476L10.4072 19.1184Z"
          fill="#D5BFB2"/>
    <path d="M9.3757 14.0625L10.3093 16.0245L7.13086 15.0934L9.3757 14.0625ZM14.6243 14.0627L16.8797 15.0934L13.6909 16.0242L14.6243 14.0627Z"
          fill="#233447"/>
    <path d="M7.68983 16.9529L7.17608 21.1754L4.42236 17.0453L7.68983 16.9529ZM16.3101 16.953L19.5777 17.0453L16.8137 21.1756L16.3101 16.953ZM18.9479 12.7864L16.5699 15.2099L14.7365 14.3721L13.8587 16.2174L13.2832 13.0441L18.9479 12.7864ZM5.05068 12.7864L10.7165 13.0441L10.1409 16.2174L9.26296 14.3723L7.43924 15.21L5.05068 12.7864Z"
          fill="#CC6228"/>
    <path d="M4.89062 12.2891L7.58106 15.0191L7.67425 17.7144L4.89062 12.2891ZM19.1122 12.2842L16.3235 17.7191L16.4285 15.0191L19.1122 12.2842ZM10.5851 12.4554L10.6934 13.1369L10.9609 14.8348L10.7889 20.0497L9.97562 15.8605L9.97534 15.8171L10.5851 12.4554ZM13.4136 12.4459L14.025 15.8171L14.0247 15.8605L13.2093 20.0602L13.1771 19.0097L13.0499 14.8039L13.4136 12.4459Z"
          fill="#E27525"/>
    <path d="M16.6677 14.9106L16.5767 17.2523L13.7385 19.4636L13.1647 19.0582L13.8078 15.7456L16.6677 14.9106ZM7.34229 14.9106L10.1922 15.7456L10.8353 19.0582L10.2616 19.4636L7.42329 17.2521L7.34229 14.9106Z"
          fill="#F5841F"/>
    <path d="M6.28296 20.3303L9.91409 22.0508L9.89871 21.3161L10.2026 21.0494H13.7964L14.1112 21.3152L14.0879 22.0493L17.6961 20.3346L15.9403 21.7855L13.8174 23.2436H10.1734L8.05184 21.7795L6.28296 20.3303Z"
          fill="#C0AC9D"/>
    <path d="M13.3317 18.8887L13.8451 19.2514L14.1459 21.6518L13.7105 21.2842H10.2909L9.86377 21.6592L10.1548 19.2516L10.6683 18.8887H13.3317Z"
          fill="#161616"/>
    <path d="M22.7638 0.960938L24 4.66941L23.228 8.41913L23.7777 8.84316L23.0338 9.41072L23.5929 9.84253L22.8526 10.5167L23.3071 10.8458L22.1009 12.2545L17.1537 10.8141L17.1109 10.7911L13.5458 7.78378L22.7638 0.960938ZM1.23619 0.960938L10.4543 7.78378L6.88913 10.7911L6.84628 10.8141L1.89909 12.2545L0.692906 10.8458L1.14703 10.517L0.407156 9.84253L0.965156 9.41119L0.210094 8.84203L0.780563 8.41772L0 4.66959L1.23619 0.960938Z"
          fill="#763E1A"/>
    <path d="M16.9117 10.4991L22.1535 12.0252L23.8565 17.2739H19.3636L16.268 17.3129L18.5193 12.9247L16.9117 10.4991ZM7.08818 10.4991L5.48027 12.9247L7.73186 17.3129L4.63764 17.2739H0.152832L1.84624 12.0253L7.08818 10.4991ZM15.3172 3.85425L13.851 7.81415L13.5399 13.1635L13.4208 14.8402L13.4113 19.1235H10.5884L10.5792 14.8483L10.4598 13.1621L10.1486 7.81415L8.68258 3.85425H15.3172Z"
          fill="#F5841F"/>
</svg>
