<svg width="24" height="24" viewBox="0 0 24 24" fill="none" xmlns="http://www.w3.org/2000/svg">
    <circle cx="12" cy="12" r="12" fill="white"/>
    <path fill-rule="evenodd" clip-rule="evenodd"
          d="M11.3477 5.40516C9.89317 6.37639 8.6139 6.77192 6.65409 6.85629C5.25022 6.9168 5.33186 6.81898 5.35584 8.41083C5.38893 10.6102 5.53336 12.5691 5.76515 13.9614C6.10725 16.0165 6.7445 17.2688 7.91932 18.1945C8.15955 18.3838 8.90101 18.856 9.56694 19.2439C10.2329 19.6318 10.9903 20.0879 11.25 20.2574C11.9509 20.7149 11.9922 20.7156 12.6832 20.2805C13.0046 20.0782 13.7209 19.6501 14.275 19.3293C15.6108 18.556 16.0725 18.2405 16.5503 17.7744C17.9483 16.4106 18.4387 14.3769 18.6294 9.15209C18.7149 6.80715 18.7443 6.86526 17.472 6.86454C15.7471 6.86357 14.1121 6.38088 12.7549 5.47185C12.0053 4.96979 12.0001 4.96953 11.3477 5.40516ZM12.34 6.56372C13.5631 7.34496 15.0519 7.81848 16.734 7.96129C17.1391 7.99567 17.4886 8.04189 17.5107 8.06399C17.5695 8.12281 17.4106 11.4255 17.2978 12.4874C17.0713 14.6207 16.712 15.8095 16.0349 16.666C15.6804 17.1145 15.0445 17.5788 13.7875 18.3068C13.2155 18.638 12.5934 19.0071 12.405 19.127C12.2166 19.2468 12.0344 19.3449 12 19.3449C11.9656 19.3449 11.7834 19.2468 11.595 19.127C11.4066 19.0071 10.7845 18.6377 10.2125 18.306C8.5246 17.3273 8.01259 16.8967 7.58665 16.0975C7.14738 15.2733 6.88517 14.2068 6.70492 12.5112C6.58955 11.4253 6.4299 8.12333 6.4899 8.06334C6.51239 8.04091 6.85513 7.99645 7.25163 7.9646C8.87553 7.83402 10.4161 7.34587 11.61 6.58355C11.8066 6.45797 11.9743 6.35293 11.9825 6.35007C11.9907 6.34727 12.1516 6.44341 12.34 6.56372Z"
          fill="#3375BB"/>
</svg>
